<svg width="50" height="50" viewBox="0 0 50 50" fill="none" xmlns="http://www.w3.org/2000/svg">
<g clip-path="url(#clip0_3708_25972)">
<rect x="1" y="1" width="48" height="48" rx="24" fill="url(#paint0_linear_3708_25972)" style=""/>
<g filter="url(#filter0_i_3708_25972)">
<path d="M4.91201 35.457C4.45951 43.6445 6.72432 53.7113 25.0495 53.7113C43.3747 53.7113 46.8573 43.4123 45.0175 34.9798C45.0175 22.6259 36.5574 16.2483 25.0495 16.2483C13.5416 16.2483 5.50023 24.814 4.91201 35.457Z" fill="url(#paint1_radial_3708_25972)" style=""/>
</g>
<ellipse cx="3.48967" cy="1.30155" rx="3.48967" ry="1.30155" transform="matrix(-1 0 0 1 29.1331 18.8293)" fill="url(#paint2_radial_3708_25972)" style=""/>
<path d="M14.0364 -0.406738C14.0037 -0.414416 13.9698 -0.403463 13.9475 -0.378418L13.6614 -0.0571289C13.6534 -0.0481877 13.6468 -0.0371808 13.6428 -0.0258789L13.5696 0.184082C13.5534 0.230863 13.578 0.282586 13.6243 0.300293C22.7347 3.76851 27.1746 8.95202 25.3372 19.7671C25.3362 19.7726 25.3342 19.7784 25.3323 19.7837C25.2531 19.9974 25.1663 20.2066 25.0735 20.4126C25.0502 20.4644 25.0787 20.5259 25.134 20.5386C25.3736 20.5924 25.601 20.6079 25.7952 20.5845C25.8238 20.581 25.8488 20.5629 25.8625 20.5376C26.0636 20.1621 26.3019 19.8016 26.3831 19.3608C28.8393 6.07647 20.3019 1.08828 14.0364 -0.406738Z" fill="url(#paint3_linear_3708_25972)" style=""/>
<ellipse cx="2.21035" cy="0.995343" rx="2.21035" ry="0.995343" transform="matrix(-0.976787 0.214211 0.102938 0.994688 29.4353 18.7515)" fill="url(#paint4_linear_3708_25972)" style=""/>
<ellipse cx="2.2328" cy="0.988045" rx="2.2328" ry="0.988045" transform="matrix(-0.965555 -0.260198 -0.128048 0.991768 26.2241 19.814)" fill="url(#paint5_linear_3708_25972)" style=""/>
<path d="M30.1378 36.6232C30.1378 39.0409 31.5487 40.984 33.2741 40.9621C34.9996 40.9402 36.355 38.9983 36.355 36.6232C36.355 34.2481 34.9829 32.305 33.2741 32.2843C31.5654 32.2637 30.1378 34.2056 30.1378 36.6232Z" fill="#FF5C83" style="fill:#FF5C83;fill:color(display-p3 1.0000 0.3600 0.5121);fill-opacity:1;"/>
<path d="M29.9674 36.8161C29.9674 39.2337 31.3782 41.1769 33.1037 41.155C34.8292 41.133 36.1846 39.1912 36.1846 36.8161C36.1846 34.441 34.8124 32.4978 33.1037 32.4772C31.395 32.4566 29.9674 34.3984 29.9674 36.8161Z" fill="url(#paint6_linear_3708_25972)" style=""/>
<path d="M34.3458 34.2669V33.5835C35.01 33.5835 35.5645 32.9929 35.6754 32.2193C35.6986 32.0542 35.8444 31.9343 36.012 31.9343C36.2209 31.9343 36.3821 32.12 36.3512 32.3263C36.1887 33.4262 35.3517 34.2669 34.3471 34.2669H34.3458Z" fill="#010101" style="fill:#010101;fill:color(display-p3 0.0039 0.0039 0.0039);fill-opacity:1;"/>
<path d="M34.14 36.3301C33.5702 36.3301 33.1083 35.8683 33.1083 35.2986C33.1083 34.7289 33.5702 34.2671 34.14 34.2671C34.7097 34.2671 35.1716 34.7289 35.1716 35.2986C35.1716 35.8683 34.7097 36.3301 34.14 36.3301Z" fill="white" style="fill:white;fill-opacity:1;"/>
<g filter="url(#filter1_f_3708_25972)">
<path d="M33.0967 38.4132C33.931 38.4132 34.6777 38.038 35.1716 37.4487C35.0233 38.978 34.1528 40.1526 33.0967 40.1526C32.0405 40.1526 31.1713 38.978 31.0217 37.4487C31.5156 38.038 32.261 38.4132 33.0967 38.4132Z" fill="url(#paint7_linear_3708_25972)" fill-opacity="0.5" style=""/>
</g>
<path d="M15.0353 36.6364C15.0353 39.054 16.4461 40.9972 18.1716 40.9753C19.8971 40.9533 21.2524 39.0115 21.2524 36.6364C21.2524 34.2613 19.8803 32.3182 18.1716 32.2975C16.4629 32.2769 15.0353 34.2187 15.0353 36.6364Z" fill="#FF5C83" style="fill:#FF5C83;fill:color(display-p3 1.0000 0.3600 0.5121);fill-opacity:1;"/>
<path d="M14.9301 36.8312C14.9301 39.2489 16.3409 41.192 18.0664 41.1701C19.7919 41.1482 21.1472 39.2063 21.1472 36.8312C21.1472 34.4561 19.7751 32.513 18.0664 32.4924C16.3577 32.4717 14.9301 34.4136 14.9301 36.8312Z" fill="url(#paint8_linear_3708_25972)" style=""/>
<g filter="url(#filter2_f_3708_25972)">
<path d="M18.0459 38.4283C18.8803 38.4283 19.6269 38.0531 20.1208 37.4639C19.9725 38.9931 19.1021 40.1678 18.0459 40.1678C16.9897 40.1678 16.1205 38.9931 15.9709 37.4639C16.4648 38.0531 17.2102 38.4283 18.0459 38.4283Z" fill="url(#paint9_linear_3708_25972)" fill-opacity="0.5" style=""/>
</g>
<path d="M19.2433 34.6299V33.9465C19.9074 33.9465 20.462 33.356 20.5729 32.5823C20.5961 32.4173 20.7418 32.2974 20.9095 32.2974C21.1184 32.2974 21.2796 32.483 21.2486 32.6893C21.0861 33.7892 20.2492 34.6299 19.2446 34.6299H19.2433Z" fill="#010101" style="fill:#010101;fill:color(display-p3 0.0039 0.0039 0.0039);fill-opacity:1;"/>
<path d="M19.087 36.3453C18.5172 36.3453 18.0553 35.8835 18.0553 35.3138C18.0553 34.7441 18.5172 34.2822 19.087 34.2822C19.6568 34.2822 20.1187 34.7441 20.1187 35.3138C20.1187 35.8835 19.6568 36.3453 19.087 36.3453Z" fill="white" style="fill:white;fill-opacity:1;"/>
<path d="M25.9939 41.9851C26.3718 41.9851 26.7406 41.9245 27.0785 41.8085C27.2539 41.7479 27.3403 41.5493 27.259 41.3817L27.2461 41.3559C27.1765 41.2128 27.0114 41.1509 26.8618 41.2012C26.5936 41.2927 26.2983 41.3404 25.9939 41.3404C25.6896 41.3404 25.3904 41.2927 25.1209 41.1999C24.9713 41.1483 24.8049 41.2102 24.7366 41.3533L24.7237 41.3804C24.6424 41.548 24.7276 41.7466 24.9029 41.8072C25.2421 41.9245 25.6135 41.9864 25.9939 41.9864V41.9851Z" fill="#FF879C" style="fill:#FF879C;fill:color(display-p3 1.0000 0.5294 0.6118);fill-opacity:1;"/>
<path d="M27.0051 41.1899C26.2142 41.9808 25.1597 41.9808 24.3688 41.1899" stroke="black" style="stroke:black;stroke-opacity:1;" stroke-width="0.790891" stroke-linecap="round"/>
<path d="M15.9236 29.9294C16.2549 29.3163 17.197 28.8487 17.9942 29.0773" stroke="#080304" style="stroke:#080304;stroke:color(display-p3 0.0314 0.0118 0.0157);stroke-opacity:1;" stroke-width="0.475875" stroke-linecap="round"/>
<path d="M35.3801 29.9294C35.0488 29.3163 34.1067 28.8487 33.3095 29.0773" stroke="#080304" style="stroke:#080304;stroke:color(display-p3 0.0314 0.0118 0.0157);stroke-opacity:1;" stroke-width="0.475875" stroke-linecap="round"/>
<path d="M3.59308 16.7826C1.53996 14.7349 2.76911 7.37657 4.56377 4.25789C7.85606 -1.45946 14.8069 -4.1607 16.9399 -0.138802C25.3779 -0.239133 21.8139 9.9536 16.7123 14.1367C14.1735 16.2182 6.65243 19.835 3.59308 16.7826Z" fill="url(#paint10_linear_3708_25972)" style=""/>
<path d="M4.56587 4.25997C2.77121 7.37864 1.54206 14.737 3.59517 16.7847C4.46585 13.0062 7.77729 6.98045 10.8338 3.67226C13.295 1.00832 15.9161 0.126829 16.942 -0.136727C14.809 -4.15863 7.85816 -1.45739 4.56587 4.25997Z" fill="url(#paint11_linear_3708_25972)" style=""/>
</g>
<rect x="1" y="1" width="48" height="48" rx="24" stroke="#FFADBD" style="stroke:#FFADBD;stroke:color(display-p3 1.0000 0.6777 0.7397);stroke-opacity:1;" stroke-width="2"/>
<defs>
<filter id="filter0_i_3708_25972" x="4.86157" y="16.2483" width="40.5925" height="37.4631" filterUnits="userSpaceOnUse" color-interpolation-filters="sRGB">
<feFlood flood-opacity="0" result="BackgroundImageFix"/>
<feBlend mode="normal" in="SourceGraphic" in2="BackgroundImageFix" result="shape"/>
<feColorMatrix in="SourceAlpha" type="matrix" values="0 0 0 0 0 0 0 0 0 0 0 0 0 0 0 0 0 0 127 0" result="hardAlpha"/>
<feOffset/>
<feGaussianBlur stdDeviation="3.07943"/>
<feComposite in2="hardAlpha" operator="arithmetic" k2="-1" k3="1"/>
<feColorMatrix type="matrix" values="0 0 0 0 0.984314 0 0 0 0 0.811765 0 0 0 0 0.847059 0 0 0 1 0"/>
<feBlend mode="normal" in2="shape" result="effect1_innerShadow_3708_25972"/>
</filter>
<filter id="filter1_f_3708_25972" x="30.8655" y="37.2925" width="4.46227" height="3.01623" filterUnits="userSpaceOnUse" color-interpolation-filters="sRGB">
<feFlood flood-opacity="0" result="BackgroundImageFix"/>
<feBlend mode="normal" in="SourceGraphic" in2="BackgroundImageFix" result="shape"/>
<feGaussianBlur stdDeviation="0.0780927" result="effect1_foregroundBlur_3708_25972"/>
</filter>
<filter id="filter2_f_3708_25972" x="15.8148" y="37.3077" width="4.46227" height="3.01623" filterUnits="userSpaceOnUse" color-interpolation-filters="sRGB">
<feFlood flood-opacity="0" result="BackgroundImageFix"/>
<feBlend mode="normal" in="SourceGraphic" in2="BackgroundImageFix" result="shape"/>
<feGaussianBlur stdDeviation="0.0780927" result="effect1_foregroundBlur_3708_25972"/>
</filter>
<linearGradient id="paint0_linear_3708_25972" x1="25" y1="1" x2="25" y2="26.5" gradientUnits="userSpaceOnUse">
<stop stop-color="#FAE0E6" style="stop-color:#FAE0E6;stop-color:color(display-p3 0.9804 0.8784 0.9020);stop-opacity:1;"/>
<stop offset="1" stop-color="white" style="stop-color:white;stop-opacity:1;"/>
</linearGradient>
<radialGradient id="paint1_radial_3708_25972" cx="0" cy="0" r="1" gradientUnits="userSpaceOnUse" gradientTransform="translate(35.2915 21.5869) rotate(128.845) scale(34.9049 37.878)">
<stop stop-color="#FF6687" style="stop-color:#FF6687;stop-color:color(display-p3 1.0000 0.4000 0.5300);stop-opacity:1;"/>
<stop offset="1" stop-color="#FFA8BB" style="stop-color:#FFA8BB;stop-color:color(display-p3 1.0000 0.6600 0.7337);stop-opacity:1;"/>
</radialGradient>
<radialGradient id="paint2_radial_3708_25972" cx="0" cy="0" r="1" gradientUnits="userSpaceOnUse" gradientTransform="translate(3.48967 1.30155) scale(3.48967 1.30155)">
<stop stop-color="#E32752" style="stop-color:#E32752;stop-color:color(display-p3 0.8900 0.1513 0.3198);stop-opacity:1;"/>
<stop offset="1" stop-color="#FF9BB1" stop-opacity="0" style="stop-color:none;stop-opacity:0;"/>
</radialGradient>
<linearGradient id="paint3_linear_3708_25972" x1="26.2509" y1="9.38587" x2="22.6757" y2="10.6637" gradientUnits="userSpaceOnUse">
<stop offset="0.38" stop-color="#DBE18E" style="stop-color:#DBE18E;stop-color:color(display-p3 0.8602 0.8826 0.5573);stop-opacity:1;"/>
<stop offset="1" stop-color="#B7C24E" style="stop-color:#B7C24E;stop-color:color(display-p3 0.7172 0.7618 0.3074);stop-opacity:1;"/>
</linearGradient>
<linearGradient id="paint4_linear_3708_25972" x1="1.48746" y1="0.0361231" x2="1.73123" y2="1.92455" gradientUnits="userSpaceOnUse">
<stop stop-color="#FE7F9B" style="stop-color:#FE7F9B;stop-color:color(display-p3 0.9961 0.4980 0.6078);stop-opacity:1;"/>
<stop offset="1" stop-color="#FF7492" style="stop-color:#FF7492;stop-color:color(display-p3 1.0000 0.4549 0.5725);stop-opacity:1;"/>
</linearGradient>
<linearGradient id="paint5_linear_3708_25972" x1="2.9574" y1="0.0620903" x2="1.30128" y2="1.98334" gradientUnits="userSpaceOnUse">
<stop stop-color="#FE87A1" style="stop-color:#FE87A1;stop-color:color(display-p3 0.9961 0.5294 0.6314);stop-opacity:1;"/>
<stop offset="1" stop-color="#FF7996" style="stop-color:#FF7996;stop-color:color(display-p3 1.0000 0.4745 0.5882);stop-opacity:1;"/>
</linearGradient>
<linearGradient id="paint6_linear_3708_25972" x1="33.0766" y1="39.5458" x2="33.0766" y2="33.3295" gradientUnits="userSpaceOnUse">
<stop stop-color="#3D1820" style="stop-color:#3D1820;stop-color:color(display-p3 0.2392 0.0941 0.1255);stop-opacity:1;"/>
<stop offset="1" style="stop-color:black;stop-opacity:1;"/>
</linearGradient>
<linearGradient id="paint7_linear_3708_25972" x1="33.0967" y1="38.4828" x2="33.0967" y2="40.1861" gradientUnits="userSpaceOnUse">
<stop stop-color="white" stop-opacity="0" style="stop-color:none;stop-opacity:0;"/>
<stop offset="1" stop-color="white" style="stop-color:white;stop-opacity:1;"/>
</linearGradient>
<linearGradient id="paint8_linear_3708_25972" x1="18.0393" y1="39.7118" x2="18.0393" y2="33.4955" gradientUnits="userSpaceOnUse">
<stop stop-color="#3D1820" style="stop-color:#3D1820;stop-color:color(display-p3 0.2392 0.0941 0.1255);stop-opacity:1;"/>
<stop offset="1" style="stop-color:black;stop-opacity:1;"/>
</linearGradient>
<linearGradient id="paint9_linear_3708_25972" x1="18.0459" y1="38.498" x2="18.0459" y2="40.2013" gradientUnits="userSpaceOnUse">
<stop stop-color="#FAFAFA" stop-opacity="0" style="stop-color:none;stop-opacity:0;"/>
<stop offset="1" stop-color="#FAFAFA" style="stop-color:#FAFAFA;stop-color:color(display-p3 0.9804 0.9804 0.9804);stop-opacity:1;"/>
</linearGradient>
<linearGradient id="paint10_linear_3708_25972" x1="19.3802" y1="1.9008" x2="3.01612" y2="15.1472" gradientUnits="userSpaceOnUse">
<stop stop-color="#ECF1A1" style="stop-color:#ECF1A1;stop-color:color(display-p3 0.9242 0.9458 0.6329);stop-opacity:1;"/>
<stop offset="1" stop-color="#DBE45B" style="stop-color:#DBE45B;stop-color:color(display-p3 0.8573 0.8928 0.3563);stop-opacity:1;"/>
</linearGradient>
<linearGradient id="paint11_linear_3708_25972" x1="6.42705" y1="1.56393" x2="11.2627" y2="5.14038" gradientUnits="userSpaceOnUse">
<stop stop-color="#D0D953" stop-opacity="0" style="stop-color:none;stop-opacity:0;"/>
<stop offset="1" stop-color="#D0D953" stop-opacity="0.5" style="stop-color:#D0D953;stop-color:color(display-p3 0.8157 0.8510 0.3255);stop-opacity:0.5;"/>
</linearGradient>
<clipPath id="clip0_3708_25972">
<rect x="1" y="1" width="48" height="48" rx="24" fill="white" style="fill:white;fill-opacity:1;"/>
</clipPath>
</defs>
</svg>
