<svg width="118" height="62" viewBox="0 0 118 62" fill="none" xmlns="http://www.w3.org/2000/svg">
<g filter="url(#filter0_d_3343_21466)">
<mask id="path-1-inside-1_3343_21466" fill="white">
<path d="M104.89 8.84961C107.077 8.84984 108.85 10.6225 108.85 12.8096V43.8975C108.85 46.0846 107.077 47.8572 104.89 47.8574H30.1611C30.1306 47.9289 30.0957 48.0003 30.0557 48.0703L27.8945 51.8516C27.1342 53.1812 25.2163 53.1814 24.4561 51.8516L22.2959 48.0703C22.2559 48.0004 22.221 47.9289 22.1904 47.8574H12.8096C10.6225 47.8572 8.84962 46.0846 8.84961 43.8975V12.8096C8.84965 10.6225 10.6225 8.84984 12.8096 8.84961H104.89Z"/>
</mask>
<path d="M104.89 8.84961C107.077 8.84984 108.85 10.6225 108.85 12.8096V43.8975C108.85 46.0846 107.077 47.8572 104.89 47.8574H30.1611C30.1306 47.9289 30.0957 48.0003 30.0557 48.0703L27.8945 51.8516C27.1342 53.1812 25.2163 53.1814 24.4561 51.8516L22.2959 48.0703C22.2559 48.0004 22.221 47.9289 22.1904 47.8574H12.8096C10.6225 47.8572 8.84962 46.0846 8.84961 43.8975V12.8096C8.84965 10.6225 10.6225 8.84984 12.8096 8.84961H104.89Z" fill="white" style="fill:white;fill-opacity:1;"/>
<path d="M104.89 8.84961L104.89 7.96465H104.89V8.84961ZM108.85 12.8096H109.735V12.8096L108.85 12.8096ZM108.85 43.8975L109.735 43.8975V43.8975H108.85ZM104.89 47.8574V48.7424H104.89L104.89 47.8574ZM30.1611 47.8574V46.9725H29.577L29.3474 47.5095L30.1611 47.8574ZM30.0557 48.0703L30.824 48.5094L30.824 48.5094L30.0557 48.0703ZM27.8945 51.8516L28.6627 52.2909L28.6629 52.2907L27.8945 51.8516ZM24.4561 51.8516L23.6876 52.2905L23.6878 52.2907L24.4561 51.8516ZM22.2959 48.0703L23.0643 47.6313L23.0642 47.6312L22.2959 48.0703ZM22.1904 47.8574L23.0041 47.5095L22.7745 46.9725H22.1904V47.8574ZM12.8096 47.8574L12.8095 48.7424H12.8096V47.8574ZM8.84961 43.8975H7.96465V43.8975L8.84961 43.8975ZM8.84961 12.8096L7.96465 12.8096V12.8096H8.84961ZM12.8096 8.84961V7.96465H12.8095L12.8096 8.84961ZM104.89 8.84961L104.89 9.73457C106.588 9.73475 107.965 11.1113 107.965 12.8096L108.85 12.8096L109.735 12.8096C109.735 10.1337 107.565 7.96494 104.89 7.96465L104.89 8.84961ZM108.85 12.8096H107.965V43.8975H108.85H109.735V12.8096H108.85ZM108.85 43.8975L107.965 43.8975C107.965 45.5957 106.588 46.9723 104.89 46.9725L104.89 47.8574L104.89 48.7424C107.565 48.7421 109.735 46.5734 109.735 43.8975L108.85 43.8975ZM104.89 47.8574V46.9725H30.1611V47.8574V48.7424H104.89V47.8574ZM30.1611 47.8574L29.3474 47.5095C29.3288 47.5531 29.3088 47.5937 29.2873 47.6312L30.0557 48.0703L30.824 48.5094C30.8825 48.407 30.9323 48.3047 30.9748 48.2053L30.1611 47.8574ZM30.0557 48.0703L29.2873 47.6312L27.1262 51.4124L27.8945 51.8516L28.6629 52.2907L30.824 48.5094L30.0557 48.0703ZM27.8945 51.8516L27.1263 51.4123C26.7056 52.1479 25.6447 52.1477 25.2243 51.4124L24.4561 51.8516L23.6878 52.2907C24.7878 54.2151 27.5627 54.2145 28.6627 52.2909L27.8945 51.8516ZM24.4561 51.8516L25.2245 51.4126L23.0643 47.6313L22.2959 48.0703L21.5275 48.5093L23.6876 52.2905L24.4561 51.8516ZM22.2959 48.0703L23.0642 47.6312C23.0428 47.5938 23.0228 47.5531 23.0041 47.5095L22.1904 47.8574L21.3767 48.2053C21.4192 48.3047 21.469 48.407 21.5276 48.5094L22.2959 48.0703ZM22.1904 47.8574V46.9725H12.8096V47.8574V48.7424H22.1904V47.8574ZM12.8096 47.8574L12.8097 46.9725C11.1112 46.9723 9.73457 45.5957 9.73457 43.8975L8.84961 43.8975L7.96465 43.8975C7.96467 46.5734 10.1338 48.7421 12.8095 48.7424L12.8096 47.8574ZM8.84961 43.8975H9.73457V12.8096H8.84961H7.96465V43.8975H8.84961ZM8.84961 12.8096L9.73457 12.8096C9.7346 11.1113 11.1112 9.73475 12.8097 9.73457L12.8096 8.84961L12.8095 7.96465C10.1338 7.96494 7.9647 10.1337 7.96465 12.8096L8.84961 12.8096ZM12.8096 8.84961V9.73457H104.89V8.84961V7.96465H12.8096V8.84961Z" fill="#E9EBED" style="fill:#E9EBED;fill:color(display-p3 0.9137 0.9216 0.9294);fill-opacity:1;" mask="url(#path-1-inside-1_3343_21466)"/>
</g>
<path d="M32.2871 29.8965H31.0996L31.1934 27.5684L29.2246 28.8184L28.6309 27.7871L30.709 26.7246L28.6309 25.6465L29.2246 24.6152L31.1934 25.8652L31.0996 23.5371H32.2871L32.1777 25.8652L34.1465 24.6152L34.7559 25.6465L32.6777 26.7246L34.7559 27.7871L34.1465 28.8184L32.1777 27.5684L32.2871 29.8965ZM47.0684 22.1777V27.5996H49.3184V28.8184H47.0684V36.209H45.584V22.1777H47.0684ZM43.3027 23.5215V24.7246H38.2402V31.4902C40.5918 31.4824 42.3574 31.3809 44.3496 31.0215L44.5371 32.2715C42.3496 32.6621 40.4902 32.7402 37.8809 32.7246H36.7559V23.5215H43.3027ZM62.7871 29.1934V30.3965H57.2402V33.1152H55.7402V30.3965H49.9746V29.1934H62.7871ZM61.3652 34.6621V35.8809H51.584V31.7715H53.0684V34.6621H61.3652ZM56.3652 22.5059C59.3809 22.5059 61.334 23.5996 61.334 25.3496C61.334 27.0996 59.3809 28.1777 56.3652 28.1777C53.3652 28.1777 51.3809 27.0996 51.3809 25.3496C51.3809 23.5996 53.3652 22.5059 56.3652 22.5059ZM56.3652 23.6934C54.3184 23.6934 52.959 24.3184 52.9746 25.3496C52.959 26.3652 54.3184 26.9746 56.3652 26.9746C58.4277 26.9746 59.7715 26.3652 59.7715 25.3496C59.7715 24.3184 58.4277 23.6934 56.3652 23.6934ZM71.0059 23.4121V24.6309H65.9121V27.334H70.7246V28.5215H65.9121V31.6621C68.248 31.6543 69.9746 31.5527 72.0059 31.2246L72.1465 32.4277C69.9902 32.7871 68.1152 32.8652 65.5371 32.8652H64.4121V23.4121H71.0059ZM74.7246 22.1777V27.6934H76.9746V28.9434H74.7246V36.1777H73.2402V22.1777H74.7246ZM89.2559 22.1934V30.1621H87.7715V22.1934H89.2559ZM89.2559 30.8652V36.0059H80.0527V30.8652H89.2559ZM81.5215 32.0527V34.8027H87.8027V32.0527H81.5215ZM81.6621 22.8965C83.8027 22.8965 85.3809 24.2402 85.3809 26.209C85.3809 28.1309 83.8027 29.4902 81.6621 29.4902C79.5215 29.4902 77.9277 28.1309 77.9277 26.209C77.9277 24.2402 79.5215 22.8965 81.6621 22.8965ZM81.6621 24.1465C80.334 24.1465 79.3809 24.959 79.3809 26.209C79.3809 27.4121 80.334 28.2402 81.6621 28.2402C82.9746 28.2402 83.9277 27.4121 83.9277 26.209C83.9277 24.959 82.9746 24.1465 81.6621 24.1465Z" fill="#73787E" style="fill:#73787E;fill:color(display-p3 0.4510 0.4706 0.4941);fill-opacity:1;"/>
<defs>
<filter id="filter0_d_3343_21466" x="5.14984e-05" y="5.14984e-05" width="117.699" height="61.6984" filterUnits="userSpaceOnUse" color-interpolation-filters="sRGB">
<feFlood flood-opacity="0" result="BackgroundImageFix"/>
<feColorMatrix in="SourceAlpha" type="matrix" values="0 0 0 0 0 0 0 0 0 0 0 0 0 0 0 0 0 0 127 0" result="hardAlpha"/>
<feOffset/>
<feGaussianBlur stdDeviation="4.42478"/>
<feComposite in2="hardAlpha" operator="out"/>
<feColorMatrix type="matrix" values="0 0 0 0 0.564706 0 0 0 0 0.596078 0 0 0 0 0.654902 0 0 0 0.12 0"/>
<feBlend mode="normal" in2="BackgroundImageFix" result="effect1_dropShadow_3343_21466"/>
<feBlend mode="normal" in="SourceGraphic" in2="effect1_dropShadow_3343_21466" result="shape"/>
</filter>
</defs>
</svg>
