<svg width="256" height="256" viewBox="0 0 256 256" fill="none" xmlns="http://www.w3.org/2000/svg">
<mask id="path-1-inside-1_2842_3131" fill="white">
<path d="M30 128C30 73.8761 73.8761 30 128 30C182.124 30 226 73.8761 226 128C226 182.124 182.124 226 128 226C73.8761 226 30 182.124 30 128Z"/>
</mask>
<g clip-path="url(#paint0_angular_2842_3131_clip_path)" data-figma-skip-parse="true" mask="url(#path-1-inside-1_2842_3131)"><g transform="matrix(-8.56743e-09 -0.098 0.098 -8.56743e-09 128 128)"><foreignObject x="-1122.45" y="-1122.45" width="2244.9" height="2244.9"><div xmlns="http://www.w3.org/1999/xhtml" style="background:conic-gradient(from 90deg,rgba(255, 255, 255, 1) 0deg,rgba(236, 90, 114, 1) 360deg);height:100%;width:100%;opacity:1"></div></foreignObject></g></g><path d="M30 128L42 128C42 80.5035 80.5035 42 128 42L128 30L128 18C67.2487 18 18 67.2487 18 128L30 128ZM128 30L128 42C175.496 42 214 80.5035 214 128L226 128L238 128C238 67.2487 188.751 18 128 18L128 30ZM226 128L214 128C214 175.496 175.496 214 128 214L128 226L128 238C188.751 238 238 188.751 238 128L226 128ZM128 226L128 214C80.5035 214 42 175.497 42 128L30 128L18 128C18 188.751 67.2487 238 128 238L128 226Z" data-figma-gradient-fill="{&#34;type&#34;:&#34;GRADIENT_ANGULAR&#34;,&#34;stops&#34;:[{&#34;color&#34;:{&#34;r&#34;:1.0,&#34;g&#34;:1.0,&#34;b&#34;:1.0,&#34;a&#34;:1.0},&#34;position&#34;:0.0},{&#34;color&#34;:{&#34;r&#34;:0.92549020051956177,&#34;g&#34;:0.35294118523597717,&#34;b&#34;:0.44705882668495178,&#34;a&#34;:1.0},&#34;position&#34;:1.0}],&#34;stopsVar&#34;:[{&#34;color&#34;:{&#34;r&#34;:1.0,&#34;g&#34;:1.0,&#34;b&#34;:1.0,&#34;a&#34;:1.0},&#34;position&#34;:0.0},{&#34;color&#34;:{&#34;r&#34;:0.92549020051956177,&#34;g&#34;:0.35294118523597717,&#34;b&#34;:0.44705882668495178,&#34;a&#34;:1.0},&#34;position&#34;:1.0}],&#34;transform&#34;:{&#34;m00&#34;:-1.7134863810497336e-05,&#34;m01&#34;:196.0,&#34;m02&#34;:30.0,&#34;m10&#34;:-196.0,&#34;m11&#34;:-1.7134863810497336e-05,&#34;m12&#34;:226.00001525878906},&#34;opacity&#34;:1.0,&#34;blendMode&#34;:&#34;NORMAL&#34;,&#34;visible&#34;:true}" style="" mask="url(#path-1-inside-1_2842_3131)"/>
<rect x="0.5" y="0.5" width="255" height="255" rx="9.5" stroke="#CACDD1" style="stroke:#CACDD1;stroke:color(display-p3 0.7922 0.8039 0.8196);stroke-opacity:1;" stroke-dasharray="2 2"/>
<defs>
<clipPath id="paint0_angular_2842_3131_clip_path"><path d="M30 128L42 128C42 80.5035 80.5035 42 128 42L128 30L128 18C67.2487 18 18 67.2487 18 128L30 128ZM128 30L128 42C175.496 42 214 80.5035 214 128L226 128L238 128C238 67.2487 188.751 18 128 18L128 30ZM226 128L214 128C214 175.496 175.496 214 128 214L128 226L128 238C188.751 238 238 188.751 238 128L226 128ZM128 226L128 214C80.5035 214 42 175.497 42 128L30 128L18 128C18 188.751 67.2487 238 128 238L128 226Z" mask="url(#path-1-inside-1_2842_3131)"/></clipPath></defs>
</svg>
