<svg width="126" height="40" viewBox="0 0 126 40" fill="none" xmlns="http://www.w3.org/2000/svg">
<path d="M15 22.5391C15 18.5487 17.968 15.1517 22.7531 15.1517C24.5702 15.1517 25.9028 15.6838 27.0738 16.5023C27.5786 16.8502 27.6391 17.3618 27.2757 17.8734L26.771 18.5078C26.4075 19.0194 25.9633 19.0194 25.4182 18.6919C24.6106 18.2213 23.6415 17.9757 22.7531 17.9757C19.9264 17.9757 18.2103 20.0221 18.2103 22.5391C18.2103 25.0561 19.9264 27.1025 22.7531 27.1025C23.6415 27.1025 24.6106 26.8569 25.4182 26.3863C25.9633 26.0589 26.4075 26.0589 26.771 26.5704L27.2757 27.2048C27.6391 27.7369 27.6189 28.1871 27.1748 28.5145C25.9835 29.374 24.6308 29.9265 22.7531 29.9265C17.968 29.9265 15 26.5295 15 22.5391Z" fill="#FF879C" style="fill:#FF879C;fill:color(display-p3 1.0000 0.5294 0.6118);fill-opacity:1;"/>
<path d="M28.7698 28.7192V16.3591C28.7698 15.7247 29.1332 15.3769 29.7591 15.3769H31.0109C31.6368 15.3769 31.9801 15.7247 31.9801 16.3591V21.5364H37.2699V16.3591C37.2699 15.7247 37.6132 15.3769 38.2391 15.3769H39.4909C40.1168 15.3769 40.46 15.7247 40.46 16.3591V28.7192C40.46 29.3535 40.1168 29.7014 39.4909 29.7014H38.2391C37.6132 29.7014 37.2699 29.3535 37.2699 28.7192V24.1762H31.9801V28.7192C31.9801 29.3535 31.6368 29.7014 31.0109 29.7014H29.7591C29.1332 29.7014 28.7698 29.3535 28.7698 28.7192Z" fill="#FF879C" style="fill:#FF879C;fill:color(display-p3 1.0000 0.5294 0.6118);fill-opacity:1;"/>
<path d="M45.8307 18.119V21.3522H50.3937C51.0196 21.3522 51.3628 21.7001 51.3628 22.3345V22.887C51.3628 23.5214 51.0196 23.8897 50.3937 23.8897H45.8307V26.9593H51.2215C51.8474 26.9593 52.1906 27.3072 52.1906 27.9416V28.7192C52.1906 29.3535 51.8474 29.7014 51.2215 29.7014H43.6097C42.9838 29.7014 42.6204 29.3535 42.6204 28.7192V16.3591C42.6204 15.7247 42.9838 15.3769 43.6097 15.3769H51.2215C51.8474 15.3769 52.1906 15.7247 52.1906 16.3591V17.1367C52.1906 17.7711 51.8474 18.119 51.2215 18.119H45.8307Z" fill="#FF879C" style="fill:#FF879C;fill:color(display-p3 1.0000 0.5294 0.6118);fill-opacity:1;"/>
<path d="M87.357 26.8365C87.0945 26.2226 87.4176 25.7928 88.0435 25.6291L88.9116 25.4245C89.477 25.2812 89.7798 25.5268 90.1029 26.0589C90.5672 26.816 91.4556 27.3276 92.6469 27.3276C94.0198 27.3276 94.9284 26.7137 94.9284 25.7724C94.9284 25.0561 94.3832 24.4832 93.3131 24.1148L91.4758 23.4395C89.8 22.887 87.7406 21.6182 87.7204 19.4082C87.7204 16.7888 89.9615 15.1517 92.7276 15.1517C94.9284 15.1517 96.483 16.134 97.2502 17.7711C97.5531 18.3645 97.2704 18.8352 96.6647 19.0193L95.8571 19.2445C95.2918 19.4082 94.9485 19.1831 94.6053 18.6919C94.2419 18.078 93.616 17.7506 92.768 17.7506C91.7585 17.7506 90.8903 18.2622 90.8903 19.2035C90.8903 19.7151 91.1124 20.2676 92.3642 20.7383L94.2015 21.4136C96.9676 22.3549 97.9973 23.8283 98.0377 25.6291C98.0377 28.4326 95.6754 29.9265 92.667 29.9265C90.0221 29.9265 88.104 28.7396 87.357 26.8365Z" fill="#FF879C" style="fill:#FF879C;fill:color(display-p3 1.0000 0.5294 0.6118);fill-opacity:1;"/>
<path d="M99.3098 28.7192V16.3591C99.3098 15.7247 99.6732 15.3769 100.299 15.3769H101.551C102.177 15.3769 102.52 15.7247 102.52 16.3591V21.5364H107.81V16.3591C107.81 15.7247 108.153 15.3769 108.779 15.3769H110.031C110.657 15.3769 111 15.7247 111 16.3591V28.7192C111 29.3535 110.657 29.7014 110.031 29.7014H108.779C108.153 29.7014 107.81 29.3535 107.81 28.7192V24.1762H102.52V28.7192C102.52 29.3535 102.177 29.7014 101.551 29.7014H100.299C99.6732 29.7014 99.3098 29.3535 99.3098 28.7192Z" fill="#FF879C" style="fill:#FF879C;fill:color(display-p3 1.0000 0.5294 0.6118);fill-opacity:1;"/>
<path d="M64.8651 28.5913L62.4978 24.1711C64.0322 23.4805 64.9054 21.9866 64.9054 20.15C64.9054 17.5511 63.2297 15.382 60.2213 15.382H54.7901C54.1642 15.382 53.8008 15.7299 53.8008 16.3642V28.7243C53.8008 29.3587 54.1642 29.7066 54.7901 29.7066H56.0419C56.6678 29.7066 57.011 29.3587 57.011 28.7243V24.5906H58.8887L59.1209 24.5753L61.6397 29.2819C61.776 29.5428 62.0586 29.7066 62.3716 29.7066H64.1332C64.7439 29.7066 65.1376 29.1029 64.8651 28.5964V28.5913ZM57.011 22.2527V18.119H59.7771C60.9078 18.119 61.6548 19.0194 61.6548 20.2063C61.6548 21.3932 60.928 22.2527 59.7771 22.2527H57.011Z" fill="#FF879C" style="fill:#FF879C;fill:color(display-p3 1.0000 0.5294 0.6118);fill-opacity:1;"/>
<path d="M77.9282 28.5913L75.5609 24.1711C77.0954 23.4805 77.9686 21.9866 77.9686 20.15C77.9686 17.5511 76.2928 15.382 73.2844 15.382H67.8532C67.2273 15.382 66.8639 15.7299 66.8639 16.3642V28.7243C66.8639 29.3587 67.2273 29.7066 67.8532 29.7066H69.105C69.7309 29.7066 70.0742 29.3587 70.0742 28.7243V24.5906H71.9519L72.1841 24.5753L74.7028 29.2819C74.8391 29.5428 75.1218 29.7066 75.4347 29.7066H77.1963C77.8071 29.7066 78.2008 29.1029 77.9282 28.5964V28.5913ZM70.2054 22.2527V18.119H72.9715C74.1021 18.119 74.8492 19.0194 74.8492 20.2063C74.8492 21.3932 74.1223 22.2527 72.9715 22.2527H70.2054Z" fill="#FF879C" style="fill:#FF879C;fill:color(display-p3 1.0000 0.5294 0.6118);fill-opacity:1;"/>
<path d="M84.6061 29.4608L82.9556 29.9673C82.6325 30.0645 82.2742 29.9417 82.0975 29.645C80.9315 27.6958 79.2557 26.2531 78.3976 25.588C78.0847 25.3476 78.009 24.9025 78.221 24.57L78.9932 23.3473C79.3314 22.8101 80.0532 22.6822 80.558 23.0812L82.0925 24.2937C82.2994 21.792 82.572 19.3978 83.9146 15.1669C84.0408 14.7628 84.4749 14.5428 84.8737 14.6758L86.3122 15.1618C86.7009 15.2948 86.9179 15.7143 86.7968 16.1134C85.868 19.142 84.6061 24.5188 85.0604 28.2074C85.0705 28.3046 85.0958 28.4325 85.121 28.5706C85.1967 28.9594 84.9746 29.3431 84.5961 29.4557L84.6061 29.4608Z" fill="#FF617B" style="fill:#FF617B;fill:color(display-p3 1.0000 0.3814 0.4831);fill-opacity:1;"/>
<path d="M86.7917 13.4788C87.7395 13.4788 88.5079 12.7001 88.5079 11.7394C88.5079 10.7788 87.7395 10 86.7917 10C85.8439 10 85.0755 10.7788 85.0755 11.7394C85.0755 12.7001 85.8439 13.4788 86.7917 13.4788Z" fill="#FF617B" style="fill:#FF617B;fill:color(display-p3 1.0000 0.3814 0.4831);fill-opacity:1;"/>
</svg>
